<?xml version="1.0" encoding="UTF-8"?>
<svg xmlns="http://www.w3.org/2000/svg" width="1200" height="630" viewBox="0 0 1200 630">
  <!-- Solid background -->
  <rect x="0" y="0" width="1200" height="630" fill="#0b1430"/>

  <!-- Top accent bar -->
  <rect x="0" y="0" width="1200" height="6" fill="#22d3ee"/>
  <rect x="0" y="0" width="500" height="6" fill="#3b82f6"/>

  <!-- Decorative grid lines -->
  <g stroke="#ffffff" stroke-opacity="0.04" stroke-width="1">
    <line x1="0" y1="100" x2="1200" y2="100"/>
    <line x1="0" y1="200" x2="1200" y2="200"/>
    <line x1="0" y1="300" x2="1200" y2="300"/>
    <line x1="0" y1="400" x2="1200" y2="400"/>
    <line x1="0" y1="500" x2="1200" y2="500"/>
    <line x1="100" y1="0" x2="100" y2="630"/>
    <line x1="300" y1="0" x2="300" y2="630"/>
    <line x1="500" y1="0" x2="500" y2="630"/>
    <line x1="700" y1="0" x2="700" y2="630"/>
    <line x1="900" y1="0" x2="900" y2="630"/>
    <line x1="1100" y1="0" x2="1100" y2="630"/>
  </g>

  <!-- Decorative glow blobs (solid with transparency) -->
  <circle cx="1050" cy="80" r="220" fill="#22d3ee" fill-opacity="0.10"/>
  <circle cx="1050" cy="80" r="120" fill="#22d3ee" fill-opacity="0.10"/>
  <circle cx="80" cy="600" r="220" fill="#3b82f6" fill-opacity="0.12"/>

  <!-- Top-left brand block -->
  <rect x="64" y="60" width="64" height="64" rx="14" fill="#2563eb"/>
  <rect x="64" y="60" width="64" height="64" rx="14" fill="#22d3ee" fill-opacity="0.4"/>
  <text x="96" y="104" text-anchor="middle"
        font-family="Helvetica, Arial, sans-serif" font-weight="800" font-size="28" fill="#ffffff">UG</text>

  <text x="144" y="92" font-family="Helvetica, Arial, sans-serif" font-weight="700" font-size="20" fill="#ffffff">Umesh Ghimire</text>
  <text x="144" y="115" font-family="Helvetica, Arial, sans-serif" font-weight="500" font-size="14" fill="#9ab0d4">umeshghimire.com.np</text>

  <!-- Status pill -->
  <rect x="64" y="160" width="290" height="38" rx="19" fill="#0a3d2c" stroke="#34d399" stroke-width="1.5"/>
  <circle cx="86" cy="179" r="5" fill="#34d399"/>
  <text x="100" y="184" font-family="Helvetica, Arial, sans-serif" font-weight="700" font-size="13" fill="#6ee7b7" letter-spacing="1.5">AVAILABLE FOR NEW PROJECTS</text>

  <!-- Headlines -->
  <text x="64" y="285" font-family="Helvetica, Arial, sans-serif" font-weight="800" font-size="62" fill="#ffffff">PHP &amp; WordPress</text>
  <text x="64" y="358" font-family="Helvetica, Arial, sans-serif" font-weight="800" font-size="62" fill="#22d3ee">Developer in Nepal</text>

  <!-- Sub-headline -->
  <text x="64" y="412" font-family="Helvetica, Arial, sans-serif" font-weight="500" font-size="20" fill="#cbd6ee">12+ years building plugins, Laravel apps and</text>
  <text x="64" y="440" font-family="Helvetica, Arial, sans-serif" font-weight="500" font-size="20" fill="#cbd6ee">custom software for clients worldwide.</text>

  <!-- Stat blocks -->
  <g font-family="Helvetica, Arial, sans-serif">
    <text x="64" y="528" font-weight="800" font-size="36" fill="#ffffff">12+</text>
    <text x="64" y="555" font-weight="600" font-size="12" fill="#9ab0d4" letter-spacing="2">YEARS</text>

    <text x="184" y="528" font-weight="800" font-size="36" fill="#ffffff">50+</text>
    <text x="184" y="555" font-weight="600" font-size="12" fill="#9ab0d4" letter-spacing="2">PROJECTS</text>

    <text x="324" y="528" font-weight="800" font-size="36" fill="#ffffff">15+</text>
    <text x="324" y="555" font-weight="600" font-size="12" fill="#9ab0d4" letter-spacing="2">TECHNOLOGIES</text>

    <text x="504" y="528" font-weight="800" font-size="36" fill="#ffffff">4+</text>
    <text x="504" y="555" font-weight="600" font-size="12" fill="#9ab0d4" letter-spacing="2">YEARS LEADING</text>
  </g>

  <!-- Right-side panel -->
  <rect x="720" y="160" width="380" height="350" rx="18" fill="#162247" stroke="#3b4a78" stroke-width="1.5"/>

  <text x="748" y="206" font-family="Helvetica, Arial, sans-serif" font-weight="700" font-size="13" fill="#22d3ee" letter-spacing="2.5">CORE STACK</text>

  <!-- Tech chip row 1 -->
  <g font-family="Helvetica, Arial, sans-serif" font-weight="600" font-size="14" fill="#ffffff">
    <rect x="748" y="220" width="74" height="34" rx="17" fill="#243160" stroke="#4a5da0" stroke-width="1"/>
    <text x="785" y="242" text-anchor="middle">PHP</text>

    <rect x="830" y="220" width="118" height="34" rx="17" fill="#243160" stroke="#4a5da0" stroke-width="1"/>
    <text x="889" y="242" text-anchor="middle">WordPress</text>

    <rect x="956" y="220" width="92" height="34" rx="17" fill="#243160" stroke="#4a5da0" stroke-width="1"/>
    <text x="1002" y="242" text-anchor="middle">Laravel</text>

    <rect x="748" y="266" width="116" height="34" rx="17" fill="#243160" stroke="#4a5da0" stroke-width="1"/>
    <text x="806" y="288" text-anchor="middle">JavaScript</text>

    <rect x="872" y="266" width="86" height="34" rx="17" fill="#243160" stroke="#4a5da0" stroke-width="1"/>
    <text x="915" y="288" text-anchor="middle">MySQL</text>

    <rect x="966" y="266" width="74" height="34" rx="17" fill="#243160" stroke="#4a5da0" stroke-width="1"/>
    <text x="1003" y="288" text-anchor="middle">AWS</text>

    <rect x="748" y="312" width="92" height="34" rx="17" fill="#243160" stroke="#4a5da0" stroke-width="1"/>
    <text x="794" y="334" text-anchor="middle">Docker</text>

    <rect x="848" y="312" width="142" height="34" rx="17" fill="#243160" stroke="#4a5da0" stroke-width="1"/>
    <text x="919" y="334" text-anchor="middle">WooCommerce</text>

    <rect x="998" y="312" width="74" height="34" rx="17" fill="#243160" stroke="#4a5da0" stroke-width="1"/>
    <text x="1035" y="334" text-anchor="middle">Linux</text>
  </g>

  <line x1="748" y1="382" x2="1072" y2="382" stroke="#3b4a78" stroke-width="1"/>

  <text x="748" y="412" font-family="Helvetica, Arial, sans-serif" font-weight="700" font-size="13" fill="#22d3ee" letter-spacing="2.5">PAST TEAMS</text>
  <text x="748" y="442" font-family="Helvetica, Arial, sans-serif" font-weight="600" font-size="17" fill="#ffffff">ThemeGrill · MantraBrain</text>
  <text x="748" y="468" font-family="Helvetica, Arial, sans-serif" font-weight="600" font-size="17" fill="#ffffff">Unifun · Sofos · E-prabidhi</text>

  <!-- Bottom tagline -->
  <text x="64" y="600" font-family="Helvetica, Arial, sans-serif" font-weight="500" font-size="14" fill="#7a8baf">Hire me for WordPress plugins, Laravel apps and senior project management.</text>
</svg>
